<svg width="355" height="88" viewBox="0 0 355 88" fill="none" xmlns="http://www.w3.org/2000/svg">
<path d="M42.05 23.5C43.0833 23.7 43.85 24.05 44.35 24.55C44.8833 25.05 45.15 25.6333 45.15 26.3C45.15 27.4 44.8333 28.2 44.2 28.7C43.6 29.2 42.6333 29.4 41.3 29.3C38.3 29.0667 35.95 28.9167 34.25 28.85C32.5833 28.75 30.3833 28.6833 27.65 28.65C26.4167 34.7833 25.2833 40.95 24.25 47.15C23.8833 49.4167 23.5 52.05 23.1 55.05C22.7 58.0167 22.4333 60.4167 22.3 62.25C22.2333 63.2167 21.8333 63.9667 21.1 64.5C20.3667 65 19.4833 65.25 18.45 65.25C17.35 65.25 16.5 64.9833 15.9 64.45C15.3 63.9167 15 63.2167 15 62.35C15 61.55 15.1167 60.2333 15.35 58.4C15.6167 56.5333 15.9167 54.5833 16.25 52.55C16.6167 50.5167 16.9 48.75 17.1 47.25C17.4667 44.7167 17.8833 42.2 18.35 39.7C18.8167 37.2 19.2833 34.8333 19.75 32.6C19.85 32.1 19.9667 31.5333 20.1 30.9C20.2333 30.2333 20.3833 29.5 20.55 28.7C17.2833 28.8 14.7167 29.0667 12.85 29.5C10.9833 29.9333 9.65 30.55 8.85 31.35C8.08333 32.1167 7.7 33.1167 7.7 34.35C7.7 35.4833 8.03333 36.5667 8.7 37.6C8.83333 37.8333 8.9 38.0833 8.9 38.35C8.9 38.9833 8.51667 39.5833 7.75 40.15C7.01667 40.6833 6.25 40.95 5.45 40.95C4.88333 40.95 4.41667 40.7833 4.05 40.45C3.38333 39.8833 2.83333 39.0833 2.4 38.05C1.96667 36.9833 1.75 35.7833 1.75 34.45C1.75 31.6167 2.66667 29.35 4.5 27.65C6.36667 25.9167 9.18333 24.65 12.95 23.85C16.75 23.05 21.6167 22.65 27.55 22.65C31.2167 22.65 34.1333 22.7167 36.3 22.85C38.5 22.9833 40.4167 23.2 42.05 23.5ZM38.677 65.25C36.6103 65.25 34.9603 64.5 33.727 63C32.4936 61.5 31.877 59.5333 31.877 57.1C31.877 54.4333 32.4936 51.9167 33.727 49.55C34.9603 47.15 36.5936 45.2333 38.627 43.8C40.6936 42.3333 42.877 41.6 45.177 41.6C45.9103 41.6 46.3936 41.75 46.627 42.05C46.8936 42.3167 47.1103 42.8167 47.277 43.55C47.977 43.4167 48.7103 43.35 49.477 43.35C51.1103 43.35 51.927 43.9333 51.927 45.1C51.927 45.8 51.677 47.4667 51.177 50.1C50.4103 53.9333 50.027 56.6 50.027 58.1C50.027 58.6 50.1436 59 50.377 59.3C50.6436 59.6 50.977 59.75 51.377 59.75C52.0103 59.75 52.777 59.35 53.677 58.55C54.577 57.7167 55.7936 56.3833 57.327 54.55C57.727 54.0833 58.177 53.85 58.677 53.85C59.1103 53.85 59.4436 54.05 59.677 54.45C59.9436 54.85 60.077 55.4 60.077 56.1C60.077 57.4333 59.7603 58.4667 59.127 59.2C57.7603 60.9 56.3103 62.3333 54.777 63.5C53.2436 64.6667 51.7603 65.25 50.327 65.25C49.227 65.25 48.2103 64.8833 47.277 64.15C46.377 63.3833 45.6936 62.35 45.227 61.05C43.4936 63.85 41.3103 65.25 38.677 65.25ZM40.477 60.2C41.2103 60.2 41.9103 59.7667 42.577 58.9C43.2436 58.0333 43.727 56.8833 44.027 55.45L45.877 46.25C44.477 46.2833 43.177 46.8167 41.977 47.85C40.8103 48.85 39.877 50.1833 39.177 51.85C38.477 53.5167 38.127 55.2833 38.127 57.15C38.127 58.1833 38.327 58.95 38.727 59.45C39.1603 59.95 39.7436 60.2 40.477 60.2ZM65.3133 66.35C63.5799 66.35 62.2466 65.95 61.3133 65.15C60.4133 64.35 59.9633 63.45 59.9633 62.45C59.9633 61.5833 60.2799 60.8333 60.9133 60.2C61.5466 59.5667 62.4799 59.25 63.7133 59.25C64.1466 59.25 64.6466 59.3 65.2133 59.4C65.8133 59.4667 66.2633 59.5167 66.5633 59.55C66.5299 58.6833 66.3299 57.8667 65.9633 57.1C65.6299 56.3333 65.1966 55.6 64.6633 54.9C64.1299 54.1667 63.6299 53.5333 63.1633 53C62.1299 54.9667 61.0966 56.6 60.0633 57.9C59.0633 59.2 57.9633 60.4333 56.7633 61.6C56.1633 62.2 55.5299 62.5 54.8633 62.5C54.3299 62.5 53.8966 62.3167 53.5633 61.95C53.2299 61.55 53.0633 61.0667 53.0633 60.5C53.0633 59.8333 53.2966 59.2167 53.7633 58.65L54.4133 57.85C56.2466 55.5833 57.6299 53.7167 58.5633 52.25C59.1299 51.2833 59.7966 50 60.5633 48.4C61.3299 46.7667 62.0799 45.0833 62.8133 43.35C63.4466 41.8833 64.7633 41.15 66.7633 41.15C67.6966 41.15 68.3466 41.2333 68.7133 41.4C69.0799 41.5667 69.2633 41.8333 69.2633 42.2C69.2633 42.4 69.1966 42.7167 69.0633 43.15C68.9299 43.5833 68.7466 44.0167 68.5133 44.45C67.9133 45.65 67.6133 46.6667 67.6133 47.5C67.6133 48 67.7799 48.55 68.1133 49.15C68.4799 49.75 69.0299 50.5 69.7633 51.4C70.8299 52.8 71.6299 54 72.1633 55C72.7299 55.9667 73.0133 57.0333 73.0133 58.2C73.0133 58.5333 72.9799 59 72.9133 59.6C74.5466 58.9667 76.4633 57.2833 78.6633 54.55C79.0633 54.0833 79.5133 53.85 80.0133 53.85C80.4466 53.85 80.7799 54.05 81.0133 54.45C81.28 54.85 81.4133 55.4 81.4133 56.1C81.4133 57.3667 81.0966 58.4 80.4633 59.2C78.7966 61.2667 77.1966 62.6833 75.6633 63.45C74.1633 64.1833 72.2966 64.5833 70.0633 64.65C68.7299 65.7833 67.1466 66.35 65.3133 66.35ZM98.6012 59.8C99.9678 60.0667 100.651 60.8167 100.651 62.05C100.651 62.8833 100.268 63.6333 99.5012 64.3C98.7678 64.9333 97.7012 65.25 96.3012 65.25C93.9012 65.25 91.9345 64.5167 90.4012 63.05C88.9012 61.55 88.1512 59.6 88.1512 57.2C88.1512 55.9 88.8178 54.9667 90.1512 54.4C91.6178 53.7667 92.6678 53.1 93.3012 52.4C93.9345 51.6667 94.2512 50.7833 94.2512 49.75C94.2512 49.15 94.1178 48.7 93.8512 48.4C93.6178 48.1 93.3178 47.95 92.9512 47.95C92.0512 47.95 91.0512 48.6 89.9512 49.9C88.8845 51.2 87.8845 52.8833 86.9512 54.95C86.0178 56.9833 85.2845 59.0833 84.7512 61.25C84.3845 62.8167 83.9512 63.8833 83.4512 64.45C82.9845 64.9833 82.2345 65.25 81.2012 65.25C80.1678 65.25 79.4012 64.8833 78.9012 64.15C78.4345 63.3833 78.1178 62.2167 77.9512 60.65C77.7845 59.0833 77.7012 56.7833 77.7012 53.75C77.7012 48.6167 78.2178 43.2667 79.2512 37.7C80.3178 32.1333 81.8678 27.4667 83.9012 23.7C85.9678 19.9 88.4345 18 91.3012 18C92.8345 18 94.0678 18.6667 95.0012 20C95.9678 21.3 96.4512 23 96.4512 25.1C96.4512 28.4667 95.4678 31.9667 93.5012 35.6C91.5345 39.2 88.3345 43.4167 83.9012 48.25C83.8012 49.9833 83.7512 51.7667 83.7512 53.6C85.3512 49.4333 87.1845 46.4167 89.2512 44.55C91.3178 42.65 93.2512 41.7 95.0512 41.7C96.7178 41.7 98.0512 42.2667 99.0512 43.4C100.085 44.5333 100.601 45.9333 100.601 47.6C100.601 49.4333 100.135 51.1167 99.2012 52.65C98.2678 54.1833 96.6678 55.55 94.4012 56.75C94.6012 57.75 95.0012 58.45 95.6012 58.85C96.2345 59.2167 97.2345 59.5333 98.6012 59.8ZM90.2512 22.95C89.6512 22.95 88.9845 23.8167 88.2512 25.55C87.5178 27.25 86.8012 29.5667 86.1012 32.5C85.4345 35.4 84.8845 38.5667 84.4512 42C86.5178 39.5667 88.2178 36.9167 89.5512 34.05C90.9178 31.1833 91.6012 28.5833 91.6012 26.25C91.6012 25.1833 91.4845 24.3667 91.2512 23.8C91.0178 23.2333 90.6845 22.95 90.2512 22.95ZM107.502 52.7C106.702 52.7667 106.052 52.5333 105.552 52C105.085 51.4667 104.852 50.7167 104.852 49.75C104.852 48.85 105.069 48.1833 105.502 47.75C105.969 47.3167 106.635 47.0667 107.502 47L117.752 46C118.585 45.9333 119.219 46.15 119.652 46.65C120.119 47.1167 120.352 47.8167 120.352 48.75C120.352 50.55 119.485 51.5333 117.752 51.7L107.502 52.7ZM161.239 23.5C162.273 23.7 163.039 24.05 163.539 24.55C164.073 25.05 164.339 25.6333 164.339 26.3C164.339 27.4 164.023 28.2 163.389 28.7C162.789 29.2 161.823 29.4 160.489 29.3C157.489 29.0667 155.139 28.9167 153.439 28.85C151.773 28.75 149.573 28.6833 146.839 28.65C145.606 34.7833 144.473 40.95 143.439 47.15C143.073 49.4167 142.689 52.05 142.289 55.05C141.889 58.0167 141.623 60.4167 141.489 62.25C141.423 63.2167 141.023 63.9667 140.289 64.5C139.556 65 138.673 65.25 137.639 65.25C136.539 65.25 135.689 64.9833 135.089 64.45C134.489 63.9167 134.189 63.2167 134.189 62.35C134.189 61.55 134.306 60.2333 134.539 58.4C134.806 56.5333 135.106 54.5833 135.439 52.55C135.806 50.5167 136.089 48.75 136.289 47.25C136.656 44.7167 137.073 42.2 137.539 39.7C138.006 37.2 138.473 34.8333 138.939 32.6C139.039 32.1 139.156 31.5333 139.289 30.9C139.423 30.2333 139.573 29.5 139.739 28.7C136.473 28.8 133.906 29.0667 132.039 29.5C130.173 29.9333 128.839 30.55 128.039 31.35C127.273 32.1167 126.889 33.1167 126.889 34.35C126.889 35.4833 127.223 36.5667 127.889 37.6C128.023 37.8333 128.089 38.0833 128.089 38.35C128.089 38.9833 127.706 39.5833 126.939 40.15C126.206 40.6833 125.439 40.95 124.639 40.95C124.073 40.95 123.606 40.7833 123.239 40.45C122.573 39.8833 122.023 39.0833 121.589 38.05C121.156 36.9833 120.939 35.7833 120.939 34.45C120.939 31.6167 121.856 29.35 123.689 27.65C125.556 25.9167 128.373 24.65 132.139 23.85C135.939 23.05 140.806 22.65 146.739 22.65C150.406 22.65 153.323 22.7167 155.489 22.85C157.689 22.9833 159.606 23.2 161.239 23.5ZM158.489 65.25C157.222 65.25 156.322 64.5833 155.789 63.25C155.289 61.9167 155.039 59.7833 155.039 56.85C155.039 52.5167 155.656 48.4 156.889 44.5C157.189 43.5333 157.672 42.8333 158.339 42.4C159.039 41.9333 160.006 41.7 161.239 41.7C161.906 41.7 162.372 41.7833 162.639 41.95C162.906 42.1167 163.039 42.4333 163.039 42.9C163.039 43.4333 162.789 44.6333 162.289 46.5C161.956 47.8333 161.689 49 161.489 50C161.289 51 161.122 52.2333 160.989 53.7C162.089 50.8333 163.322 48.5 164.689 46.7C166.056 44.9 167.389 43.6167 168.689 42.85C170.022 42.0833 171.239 41.7 172.339 41.7C174.506 41.7 175.589 42.7833 175.589 44.95C175.589 45.3833 175.439 46.4333 175.139 48.1C174.872 49.4333 174.739 50.2667 174.739 50.6C174.739 51.7667 175.156 52.35 175.989 52.35C176.922 52.35 178.122 51.6167 179.589 50.15C180.022 49.7167 180.472 49.5 180.939 49.5C181.372 49.5 181.706 49.7 181.939 50.1C182.206 50.4667 182.339 50.9667 182.339 51.6C182.339 52.8333 182.006 53.8 181.339 54.5C180.406 55.4667 179.306 56.3 178.039 57C176.806 57.6667 175.489 58 174.089 58C172.322 58 170.972 57.55 170.039 56.65C169.139 55.75 168.689 54.5333 168.689 53C168.689 52.5 168.739 52 168.839 51.5C168.906 50.8333 168.939 50.3833 168.939 50.15C168.939 49.6167 168.756 49.35 168.389 49.35C167.889 49.35 167.222 49.9167 166.389 51.05C165.589 52.15 164.789 53.6167 163.989 55.45C163.189 57.2833 162.539 59.2167 162.039 61.25C161.672 62.8167 161.239 63.8833 160.739 64.45C160.272 64.9833 159.522 65.25 158.489 65.25ZM183.843 65.25C181.776 65.25 180.126 64.5 178.893 63C177.66 61.5 177.043 59.5333 177.043 57.1C177.043 54.4333 177.66 51.9167 178.893 49.55C180.126 47.15 181.76 45.2333 183.793 43.8C185.86 42.3333 188.043 41.6 190.343 41.6C191.076 41.6 191.56 41.75 191.793 42.05C192.06 42.3167 192.276 42.8167 192.443 43.55C193.143 43.4167 193.876 43.35 194.643 43.35C196.276 43.35 197.093 43.9333 197.093 45.1C197.093 45.8 196.843 47.4667 196.343 50.1C195.576 53.9333 195.193 56.6 195.193 58.1C195.193 58.6 195.31 59 195.543 59.3C195.81 59.6 196.143 59.75 196.543 59.75C197.176 59.75 197.943 59.35 198.843 58.55C199.743 57.7167 200.96 56.3833 202.493 54.55C202.893 54.0833 203.343 53.85 203.843 53.85C204.276 53.85 204.61 54.05 204.843 54.45C205.11 54.85 205.243 55.4 205.243 56.1C205.243 57.4333 204.926 58.4667 204.293 59.2C202.926 60.9 201.476 62.3333 199.943 63.5C198.41 64.6667 196.926 65.25 195.493 65.25C194.393 65.25 193.376 64.8833 192.443 64.15C191.543 63.3833 190.86 62.35 190.393 61.05C188.66 63.85 186.476 65.25 183.843 65.25ZM185.643 60.2C186.376 60.2 187.076 59.7667 187.743 58.9C188.41 58.0333 188.893 56.8833 189.193 55.45L191.043 46.25C189.643 46.2833 188.343 46.8167 187.143 47.85C185.976 48.85 185.043 50.1833 184.343 51.85C183.643 53.5167 183.293 55.2833 183.293 57.15C183.293 58.1833 183.493 58.95 183.893 59.45C184.326 59.95 184.91 60.2 185.643 60.2ZM210.729 65.25C207.463 65.25 204.913 64.3333 203.079 62.5C201.279 60.6333 200.379 58.1833 200.379 55.15C200.379 52.45 200.913 50.0833 201.979 48.05C203.046 46.0167 204.429 44.45 206.129 43.35C207.829 42.25 209.613 41.7 211.479 41.7C213.313 41.7 214.729 42.25 215.729 43.35C216.763 44.4167 217.279 45.8 217.279 47.5C217.279 48.9 216.963 50.0833 216.329 51.05C215.729 52.0167 214.929 52.5 213.929 52.5C213.296 52.5 212.779 52.35 212.379 52.05C212.013 51.75 211.829 51.3333 211.829 50.8C211.829 50.5667 211.863 50.3 211.929 50C211.996 49.7 212.046 49.4833 212.079 49.35C212.246 48.85 212.329 48.3833 212.329 47.95C212.329 47.5167 212.213 47.1833 211.979 46.95C211.779 46.7167 211.479 46.6 211.079 46.6C210.313 46.6 209.596 46.95 208.929 47.65C208.263 48.3167 207.729 49.2333 207.329 50.4C206.929 51.5667 206.729 52.85 206.729 54.25C206.729 58.1167 208.413 60.05 211.779 60.05C213.146 60.05 214.613 59.6 216.179 58.7C217.779 57.7667 219.346 56.3833 220.879 54.55C221.279 54.0833 221.729 53.85 222.229 53.85C222.663 53.85 222.996 54.05 223.229 54.45C223.496 54.85 223.629 55.4 223.629 56.1C223.629 57.3667 223.313 58.4 222.679 59.2C221.113 61.1333 219.229 62.6333 217.029 63.7C214.863 64.7333 212.763 65.25 210.729 65.25ZM248.488 53.85C248.921 53.85 249.254 54.05 249.488 54.45C249.754 54.85 249.888 55.4 249.888 56.1C249.888 57.4333 249.571 58.4667 248.938 59.2C247.438 61.0333 245.921 62.5 244.388 63.6C242.854 64.7 241.038 65.25 238.938 65.25C236.371 65.25 234.304 64.5167 232.738 63.05C231.171 61.5833 230.387 59.6333 230.387 57.2C230.387 55.9 231.054 54.9667 232.388 54.4C233.854 53.7667 234.904 53.1 235.538 52.4C236.171 51.6667 236.488 50.7833 236.488 49.75C236.488 49.15 236.354 48.7 236.088 48.4C235.854 48.1 235.554 47.95 235.188 47.95C234.288 47.95 233.288 48.6 232.188 49.9C231.121 51.2 230.121 52.8833 229.188 54.95C228.254 56.9833 227.521 59.0833 226.988 61.25C226.621 62.8167 226.188 63.8833 225.688 64.45C225.221 64.9833 224.471 65.25 223.438 65.25C222.404 65.25 221.638 64.8833 221.138 64.15C220.671 63.3833 220.354 62.2167 220.188 60.65C220.021 59.0833 219.938 56.7833 219.938 53.75C219.938 48.6167 220.454 43.2667 221.488 37.7C222.554 32.1333 224.104 27.4667 226.138 23.7C228.204 19.9 230.671 18 233.538 18C235.071 18 236.304 18.6667 237.238 20C238.204 21.3 238.688 23 238.688 25.1C238.688 28.4667 237.704 31.9667 235.738 35.6C233.771 39.2 230.571 43.4167 226.138 48.25C226.038 49.9833 225.988 51.7667 225.988 53.6C227.588 49.4333 229.421 46.4167 231.488 44.55C233.554 42.65 235.488 41.7 237.288 41.7C238.954 41.7 240.288 42.2667 241.288 43.4C242.321 44.5333 242.838 45.9333 242.838 47.6C242.838 49.4333 242.371 51.1167 241.438 52.65C240.504 54.1833 238.904 55.55 236.638 56.75C236.771 57.65 237.171 58.3833 237.838 58.95C238.538 59.4833 239.371 59.75 240.338 59.75C241.371 59.75 242.371 59.35 243.338 58.55C244.304 57.75 245.571 56.4167 247.138 54.55C247.538 54.0833 247.988 53.85 248.488 53.85ZM232.488 22.95C231.888 22.95 231.221 23.8167 230.488 25.55C229.754 27.25 229.038 29.5667 228.338 32.5C227.671 35.4 227.121 38.5667 226.688 42C228.754 39.5667 230.454 36.9167 231.788 34.05C233.154 31.1833 233.838 28.5833 233.838 26.25C233.838 25.1833 233.721 24.3667 233.488 23.8C233.254 23.2333 232.921 22.95 232.488 22.95ZM268.157 53.85C268.59 53.85 268.924 54.05 269.157 54.45C269.424 54.85 269.557 55.4 269.557 56.1C269.557 57.4333 269.24 58.4667 268.607 59.2C267.374 60.7 265.624 62.0833 263.357 63.35C261.124 64.6167 258.724 65.25 256.157 65.25C252.657 65.25 249.94 64.3 248.007 62.4C246.074 60.5 245.107 57.9 245.107 54.6C245.107 52.3 245.59 50.1667 246.557 48.2C247.524 46.2 248.857 44.6167 250.557 43.45C252.29 42.2833 254.24 41.7 256.407 41.7C258.34 41.7 259.89 42.2833 261.057 43.45C262.224 44.5833 262.807 46.1333 262.807 48.1C262.807 50.4 261.974 52.3833 260.307 54.05C258.674 55.6833 255.89 56.9833 251.957 57.95C252.79 59.4833 254.374 60.25 256.707 60.25C258.207 60.25 259.907 59.7333 261.807 58.7C263.74 57.6333 265.407 56.25 266.807 54.55C267.207 54.0833 267.657 53.85 268.157 53.85ZM255.557 46.6C254.324 46.6 253.274 47.3167 252.407 48.75C251.574 50.1833 251.157 51.9167 251.157 53.95V54.05C253.124 53.5833 254.674 52.8833 255.807 51.95C256.94 51.0167 257.507 49.9333 257.507 48.7C257.507 48.0667 257.324 47.5667 256.957 47.2C256.624 46.8 256.157 46.6 255.557 46.6ZM285.686 48.55C286.419 48.55 287.036 48.8167 287.536 49.35C288.069 49.85 288.336 50.4833 288.336 51.25C288.336 51.6833 288.236 52.15 288.036 52.65C287.503 53.8833 286.753 54.9167 285.786 55.75C284.819 56.5833 283.753 57 282.586 57C281.653 57 280.853 56.6667 280.186 56C279.553 55.3333 279.236 54.4333 279.236 53.3C279.236 52.6667 279.269 51.9833 279.336 51.25C279.403 50.7167 279.436 50.35 279.436 50.15C279.436 49.8833 279.369 49.6833 279.236 49.55C279.136 49.4167 279.003 49.35 278.836 49.35C278.369 49.35 277.736 49.9167 276.936 51.05C276.136 52.15 275.336 53.6167 274.536 55.45C273.736 57.2833 273.086 59.2167 272.586 61.25C272.219 62.85 271.803 63.9167 271.336 64.45C270.869 64.9833 270.103 65.25 269.036 65.25C267.769 65.25 266.869 64.5833 266.336 63.25C265.836 61.9167 265.586 59.7833 265.586 56.85C265.586 52.5167 266.203 48.4 267.436 44.5C267.736 43.5333 268.219 42.8333 268.886 42.4C269.586 41.9333 270.553 41.7 271.786 41.7C272.453 41.7 272.919 41.7833 273.186 41.95C273.453 42.1167 273.586 42.4333 273.586 42.9C273.586 43.4333 273.336 44.6333 272.836 46.5C272.503 47.8333 272.236 49 272.036 50C271.836 51 271.669 52.2333 271.536 53.7C272.636 50.8333 273.869 48.5 275.236 46.7C276.603 44.9 277.936 43.6167 279.236 42.85C280.536 42.0833 281.719 41.7 282.786 41.7C283.753 41.7 284.486 41.9833 284.986 42.55C285.519 43.0833 285.786 43.8833 285.786 44.95C285.786 45.5833 285.603 46.7833 285.236 48.55H285.686Z" fill="#31336A"/>
<path d="M333.333 47.5244C333.333 50.8445 333.333 54.936 333.333 58.2561C333.333 62.2805 331.378 64.2927 327.467 64.2927C321.6 64.2927 315.733 64.2927 309.867 64.2927C305.956 64.2927 304 62.2805 304 58.2561C304 52.2195 304 46.1829 304 40.1463C304 36.1219 305.956 34.1097 309.867 34.1097C315.733 34.1097 322.8 34.1097 328.667 34.1097" stroke="#31336A" stroke-width="3" stroke-linecap="round" stroke-linejoin="round"/>
<path d="M307.598 48.4928C307.193 47.4517 307.317 45.9491 307.999 45.237C308.324 44.9093 311.627 42.6801 312.128 42.3495L319.415 48.9957C321.239 46.4556 325.759 40.2477 329.082 37.4341C330.576 36.1859 334.017 33.8724 335.886 32.8659C337.876 31.8084 340.648 30.7395 342.252 30.4239C342.928 30.3167 344.513 30.6544 344.967 31.1722C345.556 31.8712 345.576 35.8345 345.609 36.7374C344.481 37.1784 340.378 38.7978 339.844 39.0424C337.838 39.9758 333.967 42.8067 332.298 44.3286C329.076 47.3163 320.74 57.3776 319.959 58.3243C317.171 56.4637 310.066 51.7148 308.278 49.572C307.959 49.1617 307.729 48.8018 307.598 48.4928Z" fill="#5475CA" stroke="#31336A" stroke-linecap="round"/>
</svg>
