<svg width="34" height="34" viewBox="0 0 34 34" fill="none" xmlns="http://www.w3.org/2000/svg">
<path d="M4.25 8.5H7.08333H29.75" stroke="#E64141" stroke-width="2" stroke-linecap="round" stroke-linejoin="round"/>
<path d="M26.9166 8.5V28.3333C26.9166 29.0848 26.6181 29.8055 26.0867 30.3368C25.5554 30.8682 24.8347 31.1667 24.0833 31.1667H9.91659C9.16514 31.1667 8.44447 30.8682 7.91312 30.3368C7.38176 29.8055 7.08325 29.0848 7.08325 28.3333V8.5M11.3333 8.5V5.66667C11.3333 4.91522 11.6318 4.19455 12.1631 3.6632C12.6945 3.13185 13.4151 2.83334 14.1666 2.83334H19.8333C20.5847 2.83334 21.3054 3.13185 21.8367 3.6632C22.3681 4.19455 22.6666 4.91522 22.6666 5.66667V8.5" stroke="#E64141" stroke-width="2" stroke-linecap="round" stroke-linejoin="round"/>
<path d="M14.1667 15.5833V24.0833" stroke="#E64141" stroke-width="2" stroke-linecap="round" stroke-linejoin="round"/>
<path d="M19.8333 15.5833V24.0833" stroke="#E64141" stroke-width="2" stroke-linecap="round" stroke-linejoin="round"/>
</svg>
